PathFileType	4	(X/Y/Z)	pose_F01_0-96.trc
DataRate	CameraRate	NumFrames	NumMarkers	Units	OrigDataRate	OrigDataStartFrame	OrigNumFrames
30	30	9	21	m	30	12	96
Frame#	Time	CHip			RHip			RKnee			RAnkle			RBigToe			RSmallToe			RHeel			LHip			LKnee			LAnkle			LBigToe			LSmallToe			LHeel			Neck			Nose			RShoulder			RElbow			RWrist			LShoulder			LElbow			LWrist			
		X1	Y1	Z1	X2	Y2	Z2	X3	Y3	Z3	X4	Y4	Z4	X5	Y5	Z5	X6	Y6	Z6	X7	Y7	Z7	X8	Y8	Z8	X9	Y9	Z9	X10	Y10	Z10	X11	Y11	Z11	X12	Y12	Z12	X13	Y13	Z13	X14	Y14	Z14	X15	Y15	Z15	X16	Y16	Z16	X17	Y17	Z17	X18	Y18	Z18	X19	Y19	Z19	X20	Y20	Z20	X21	Y21	Z21	
12	0.4	-0.2304466234854663	1.880996647125043	-0.5850565713622405	-0.2418109617777693	1.879002507802862	-0.5125535562876702	-0.23113459632170344	1.7183773871797965	-0.49456983779231667	-0.22878271570271816	1.5661874818478039	-0.4750296154950301	-0.2640684380991733	1.5214618268407012	-0.4559649757380158	-0.2566492513093051	1.5272365624607167	-0.4280830400620151	-0.22283083731014583	1.5581285803787783	-0.48496533032684297	-0.2153262369354838	1.884276322300302	-0.659492619872812	-0.20950291848118624	1.7137059607013998	-0.6471088871655977	-0.2072534068827712	1.5562738668518297	-0.640958253188451	-0.2377296924851524	1.5033612919371857	-0.6346891496189284	-0.3349462414021048	1.4841064571847524	-1.0399902780025947	-0.20361047585827688	1.5423303165097266	-0.6262481611029812	-0.21878722605002124	2.0602688818039447	-0.6011591789322717	-0.2465937069726341	2.1311283494570046	-0.5851481894829826	-0.23448478635201053	2.0568408160034606	-0.5017477086195631	-1.8233560096017891	1.8885198023201462	1.305760650464021	-0.2494258958487025	1.8769937940092023	-0.4274137603475963	-0.20016742052720055	2.064463858866986	-0.7007014586824334	-0.19058450511534397	1.9679244974479602	-0.725334073009511	-0.19474017901151214	1.8732477322489043	-0.727890067079994
13	0.43333333333333335	-0.2304466234854663	1.880996647125043	-0.5850565713622405	-0.2418109617777693	1.879002507802862	-0.5125535562876702	-0.23113459632170344	1.7183773871797965	-0.49456983779231667	-0.22878271570271816	1.5661874818478039	-0.4750296154950301	-0.2640684380991733	1.5214618268407012	-0.4559649757380158	-0.2566492513093051	1.5272365624607167	-0.4280830400620151	-0.22283083731014583	1.5581285803787783	-0.48496533032684297	-0.2153262369354838	1.884276322300302	-0.659492619872812	-0.20950291848118624	1.7137059607013998	-0.6471088871655977	-0.2072534068827712	1.5562738668518297	-0.640958253188451	-0.2377296924851524	1.5033612919371857	-0.6346891496189284	-0.3349462414021048	1.4841064571847524	-1.0399902780025947	-0.20361047585827688	1.5423303165097266	-0.6262481611029812	-0.21878722605002124	2.0602688818039447	-0.6011591789322717	-0.2465937069726341	2.1311283494570046	-0.5851481894829826	-0.23448478635201053	2.0568408160034606	-0.5017477086195631	-1.8233562765926252	1.888543793621522	1.3057320478561933	-0.2494258958487025	1.8769937940092023	-0.4274137603475963	-0.20016742052720055	2.064463858866986	-0.7007014586824334	-0.19058450511534397	1.9679244974479602	-0.725334073009511	-0.19474017901151214	1.8732477322489043	-0.727890067079994
14	0.4666666666666667	-0.2304466234854663	1.880996647125043	-0.5850565713622405	-0.2418109617777693	1.879002507802862	-0.5125535562876702	-0.23113459632170344	1.7183773871797965	-0.49456983779231667	-0.22878271570271816	1.5661874818478039	-0.4750296154950301	-0.2640684380991733	1.5214618268407012	-0.4559649757380158	-0.2566492513093051	1.5272365624607167	-0.4280830400620151	-0.22283083731014583	1.5581285803787783	-0.48496533032684297	-0.2153262369354838	1.884276322300302	-0.659492619872812	-0.20950291848118624	1.7137059607013998	-0.6471088871655977	-0.2072534068827712	1.5562738668518297	-0.640958253188451	-0.2377296924851524	1.5033612919371857	-0.6346891496189284	-0.3349462414021048	1.4841064571847524	-1.0399902780025947	-0.20361047585827688	1.5423303165097266	-0.6262481611029812	-0.21878722605002124	2.0602688818039447	-0.6011591789322717	-0.2465937069726341	2.1311283494570046	-0.5851481894829826	-0.23448478635201053	2.0568408160034606	-0.5017477086195631	-0.23593618307601955	1.9622673232284706	-0.46421411851025085	-0.2494258958487025	1.8769937940092023	-0.4274137603475963	-0.20016742052720055	2.064463858866986	-0.7007014586824334	-0.19058450511534397	1.9679244974479602	-0.725334073009511	-0.19474017901151214	1.8732477322489043	-0.727890067079994
15	0.5	-0.23010567948022284	1.881985429578901	-0.5850257504659212	-0.2433917682521728	1.8798311589702423	-0.5103205702859959	-0.23049410177912086	1.716489523928995	-0.4948668911777035	-0.22886978428982685	1.5661919593634257	-0.4749284022256166	-0.26091200802137854	1.520896336283023	-0.45503048263219326	-0.2566492513093051	1.5272365624607167	-0.4280830400620151	-0.2249232644858124	1.558346562292838	-0.48296950805839667	-0.21722085339442732	1.884075326931796	-0.657219033975072	-0.20927139834679567	1.7149294422394592	-0.6474417837483101	-0.20681588216911934	1.5535650440242694	-0.6415177186045822	-0.23988677141172043	1.5035141225809159	-0.6325683258555992	-0.3349860398537233	1.4843112565338192	-1.0399663404331803	-0.20221648263066153	1.5410672772537755	-0.6318937179585025	-0.21962073471514235	2.060363633923558	-0.6042020647252008	-0.24661630650740243	2.131133157108465	-0.5852073084788877	-0.23445974304962822	2.056882870820258	-0.5018149884846519	-0.23705956081749865	1.9638703225061125	-0.4678071486303983	-0.24958277834283069	1.878242968817702	-0.4275959521182216	-0.1988145683783923	2.0647144563988	-0.7057749880162276	-0.19222340919846198	1.9697568246589634	-0.7314156315913785	-0.19544615363952939	1.875159920401072	-0.7311083747473641
16	0.5333333333333333	-0.23032418338832641	1.8821807313086818	-0.5850933277159872	-0.24350439551085162	1.8786499562694376	-0.5101341526245124	-0.2309547586000023	1.714129254931455	-0.49419209469541636	-0.23011577618440163	1.5646845511654577	-0.47762109725255575	-0.2635570910218379	1.5188597510495472	-0.45617976828749807	-0.2566492513093051	1.5272365624607167	-0.4280830400620151	-0.22495763483082237	1.5588119915482566	-0.4826968338816237	-0.2152364453223586	1.8854952291737845	-0.6595658359197939	-0.2108542755265011	1.714908993002939	-0.6417224010535596	-0.20722268170279493	1.5563947818816337	-0.6410332290906653	-0.23664753609026057	1.5064676404788462	-0.6319197092297011	-0.2233579987210149	1.5134386569264129	-0.6625391298359686	-0.20215517767463909	1.5439514483251917	-0.6322555934897064	-0.21875886892411434	2.0602604465396803	-0.6011818982700284	-0.24659098856185285	2.1311263890549923	-0.5851995392172803	-0.23448485144503517	2.0568660716014424	-0.5017256600092053	-0.2360845607626578	1.9612183555157268	-0.46420267263824944	-0.2496330165055706	1.8757223068608233	-0.4272402676965069	-0.19801895803821545	2.0645772280180696	-0.702900863073753	-0.19225735802794766	1.9706362140441844	-0.7315561736508244	-0.1978542570365879	1.8785426507318674	-0.7295074024152195
17	0.5666666666666667	-0.23050535144347611	1.8769350420342124	-0.5842664028578746	-0.24374680093774634	1.8748398552898369	-0.5095371506327367	-0.23098490781969633	1.714369404902599	-0.4941438228712728	-0.2297136332711607	1.5651840900850114	-0.4785038025702575	-0.26230272243230124	1.522484583766087	-0.45806120393956345	-0.2566492513093051	1.5272365624607167	-0.4280830400620151	-0.22586665344825343	1.5577608511912981	-0.48662412838352154	-0.21764668932652917	1.8789969662887274	-0.6564975809053745	-0.21159064586934703	1.7136123335136648	-0.6449276882386299	-0.20694468991604983	1.5577516312729252	-0.6415853071432416	-0.23551074820170448	1.5038502384293075	-0.636982883415346	-0.2220938047441855	1.5135253318008275	-0.6678390311925774	-0.20308907185535968	1.5450473670900224	-0.6274192405887036	-0.21973710824712533	2.0592203193727	-0.6042157060553595	-0.24656665300804614	2.1311197145131335	-0.585207879350398	-0.23447922283263054	2.056879082270611	-0.5017552189670628	-0.23714022110878782	1.9627339500999783	-0.467769846877035	-0.24981585791047026	1.875918795972983	-0.4273952135132863	-0.19894810556397433	2.063588874442992	-0.7058110125305715	-0.19149611669094901	1.968040511242117	-0.7283733442689503	-0.19791148444567408	1.8748658049901228	-0.7288494366378921
18	0.6	-0.2324888601261141	1.8808972800588386	-0.5827428392189375	-0.2437180093945467	1.8774987106146108	-0.5099097313953983	-0.23100075308489096	1.714201882746792	-0.4942643633140073	-0.22975442541785768	1.565835768244475	-0.4782375980949864	-0.26177541429722406	1.5202267618827914	-0.4580223011809963	-0.2566492513093051	1.5272365624607167	-0.4280830400620151	-0.22270028439116188	1.5598674093101705	-0.4856577968925165	-0.2166641833010505	1.8841134260849277	-0.6541402298139469	-0.20951594827326134	1.7136703746557436	-0.6471208140975553	-0.2070380717060841	1.554964154640108	-0.6412099644258907	-0.23826511457005156	1.5037620529274582	-0.6337324417169565	-0.33493318821542684	1.4841859732084346	-1.0399650355202228	-0.20335092947175673	1.5438048542087421	-0.6267668923517606	-0.21962682240008835	2.0604151608486565	-0.6041408435694751	-0.24658281007805866	2.1311462393511516	-0.5852088046086441	-0.23538949713725774	2.0570319223972064	-0.5047815871144388	-0.2350599995305758	1.963998527517647	-0.4700360385568685	-0.24977713040078897	1.8786081456858144	-0.42781028356852446	-0.19804602992721826	2.064594562430789	-0.7028389373166701	-0.19212103732050775	1.971881051808144	-0.7316562930339727	-0.19752882196909038	1.8775404114235652	-0.7292730642664823
19	0.6333333333333333	-0.23018888479408858	1.8833579947975256	-0.585154344866246	-0.24340377532711144	1.8798160456351272	-0.5102015641377088	-0.23098548738200897	1.7169250115182555	-0.49454773200155056	-0.22978618855569632	1.5657141733225646	-0.47821576902135504	-0.26376687039500735	1.5196449102425418	-0.45628143646723474	-0.2566492513093051	1.5272365624607167	-0.4280830400620151	-0.2249176728361306	1.5588204184695749	-0.48275280168235696	-0.21636713631667945	1.8840128315912388	-0.6540989800474323	-0.21160377418371232	1.716293306478035	-0.6452797585516654	-0.20695786308698141	1.557727107704515	-0.6415472187997252	-0.23991197054840038	1.5035662339475764	-0.6325385177650208	-0.3340880167529831	1.4847554073425937	-1.036926274436912	-0.20143304679116625	1.5452571966704038	-0.6287585832757614	-0.21959250337325126	2.0591501595444193	-0.6036752086361765	-0.24654424596119834	2.1321839655930512	-0.584968991263312	-0.23443864380630008	2.056888529854292	-0.5017997845950878	-0.23680176289327964	1.9634495850449363	-0.4673626700504337	-0.24952123532402226	1.878190765405214	-0.42764180640709876	-0.19814156274456765	2.063464408952094	-0.7029731091279547	-0.19157547663253116	1.969234362424309	-0.7286461878530174	-0.19789597645490437	1.874472115336261	-0.7288934703974823
20	0.6666666666666666	-0.23215706014241314	1.8792330520725784	-0.5822824462902909	-0.2423424886700082	1.8781072002074395	-0.5068301443270005	-0.2307996581130774	1.7185978674868811	-0.49486172093211345	-0.22883256501853738	1.5663663606786136	-0.475001360417475	-0.2635957115124543	1.5217718342000528	-0.456492676598236	-0.2566492513093051	1.5272365624607167	-0.4280830400620151	-0.22470210994593154	1.5601829790889499	-0.4834573777535528	-0.21843566775678747	1.8823473503194494	-0.6515015257273126	-0.21149548020957118	1.7150350720604315	-0.6453081284324677	-0.20724135754195147	1.5563371799729826	-0.641007731500346	-0.23945374101649927	1.503560458423281	-0.6284357285595801	-0.33408624275030174	1.4832571583642664	-1.0370777282898522	-0.20124369571124967	1.5437707694740048	-0.6289909168601477	-0.2187697709987803	2.0602514000363907	-0.6011717525341006	-0.2465282729346467	2.13218588578955	-0.5849994947544365	-0.23449157621545177	2.0568738718857458	-0.5017681221088196	-0.2349602445538791	1.96250415393605	-0.46952382191345193	-0.24952613999264525	1.8783375962934037	-0.42764256086846164	-0.19801719834705686	2.064582003270199	-0.7028514400143178	-0.19424031327192245	1.971941742521062	-0.7293926496754931	-0.20005359205870468	1.8742331739487734	-0.7266182099048304
